<svg xmlns="http://www.w3.org/2000/svg" width="12.427" height="25.597" viewBox="0 0 12.427 25.597">
  <path id="facebook" d="M11.518,24.287a.309.309,0,0,0,.31.31h4.416a.309.309,0,0,0,.31-.31V12.2h3.2a.31.31,0,0,0,.309-.284l.307-3.64a.31.31,0,0,0-.308-.336h-3.51V5.358a1.1,1.1,0,0,1,1.1-1.1h2.467a.309.309,0,0,0,.31-.31V.31a.31.31,0,0,0-.31-.31H15.949a4.43,4.43,0,0,0-4.43,4.43V7.941H9.31A.31.31,0,0,0,9,8.25v3.642a.309.309,0,0,0,.31.31h2.208Z" transform="translate(-8.5 0.5)" fill="#fff" stroke="rgba(0,0,0,0)" stroke-width="1" fill-rule="evenodd"/>
</svg>
